# xmcd
#
# Track frame offsets: 
#        150
#        23720
#        52503
#        82748
#        110320
#        161618
#        197973
#        213835
#        243125
#        262478
#        287865
#
# Disc length: 4362 seconds
#
# Revision: 6
# Processed by: cddbd v1.5.2PL0 Copyright (c) Steve Scherf et al.
# Submitted via: ExactAudioCopy v1.0b4
#
DISCID=8d11080b
DTITLE=John Lee Hooker - Endless Boogie
DYEAR=1971
DGENRE=Blues
TTITLE0=(I Got) A Good 'Un
TTITLE1=House Rent Boogie
TTITLE2=Kick Hit 4 Hit Kix U (Blues For Jimi And Janis)
TTITLE3=Standin' At The Crossroads
TTITLE4=Pots On, Gas On High
TTITLE5=We Might As Well Call It Through (I Didn't Get Married To Your
TTITLE5=Two-Timing Mother)
TTITLE6=Doin' The Shout
TTITLE7=A Sheep Out On The Foam
TTITLE8=I Don't Need No Steam Heat
TTITLE9=Sittin' In My Dark Room
TTITLE10=Endless Boogie, Parts 27 and 28
EXTD=
EXTT0=
EXTT1=
EXTT2=
EXTT3=
EXTT4=
EXTT5=
EXTT6=
EXTT7=
EXTT8=
EXTT9=
EXTT10=
PLAYORDER=
